<svg xmlns="http://www.w3.org/2000/svg" width="22" height="22" viewBox="0 0 22 22">
  <g id="Noti-Icon" transform="translate(0 -11)">
    <g id="bx-bell" transform="translate(0 11)">
      <rect id="Background" width="22" height="22" fill="none"/>
      <path id="Shape" d="M8.25,18.333A2.744,2.744,0,0,1,5.667,16.5h5.166A2.746,2.746,0,0,1,8.25,18.333Zm7.333-2.75H.917A.918.918,0,0,1,0,14.666V12.833a.91.91,0,0,1,.268-.648l1.565-1.564V7.333a6.432,6.432,0,0,1,4.716-6.18,1.831,1.831,0,0,1,3.4,0,6.431,6.431,0,0,1,4.716,6.18v3.288l1.565,1.564a.91.91,0,0,1,.268.648v1.833A.918.918,0,0,1,15.583,15.583ZM8.25,2.75A4.588,4.588,0,0,0,3.667,7.333V11a.907.907,0,0,1-.268.648L1.833,13.213v.537H14.666v-.537L13.1,11.648A.9.9,0,0,1,12.833,11V7.333A4.588,4.588,0,0,0,8.25,2.75Z" transform="translate(2.75 1.833)" fill="#555b6d"/>
    </g>
  </g>
</svg>
