<svg id="Setting" xmlns="http://www.w3.org/2000/svg" width="22" height="22" viewBox="0 0 22 22">
  <rect id="Background" width="22" height="22" fill="none"/>
  <path id="Shape" d="M3.667,7.333A3.667,3.667,0,1,1,7.333,3.667,3.671,3.671,0,0,1,3.667,7.333Zm0-5.5A1.858,1.858,0,0,0,1.833,3.667,1.858,1.858,0,0,0,3.667,5.5,1.858,1.858,0,0,0,5.5,3.667,1.858,1.858,0,0,0,3.667,1.833Z" transform="translate(7.333 7.333)" fill="#555b6d"/>
  <path id="Shape-2" data-name="Shape" d="M9.554,18.333H7.721A1.835,1.835,0,0,1,5.888,16.5v-.548A7.438,7.438,0,0,1,4.15,14.933l-.485.28a1.765,1.765,0,0,1-.882.23,1.885,1.885,0,0,1-1.62-.9L.246,12.958a1.836,1.836,0,0,1,.67-2.506l.463-.267a6.985,6.985,0,0,1,0-2.038L.916,7.879a1.834,1.834,0,0,1-.67-2.5l.916-1.585a1.885,1.885,0,0,1,1.621-.9,1.77,1.77,0,0,1,.882.23L4.15,3.4A7.438,7.438,0,0,1,5.888,2.381V1.833A1.835,1.835,0,0,1,7.721,0H9.554a1.835,1.835,0,0,1,1.833,1.833v.548A7.4,7.4,0,0,1,13.126,3.4l.485-.281a1.764,1.764,0,0,1,.882-.231,1.887,1.887,0,0,1,1.621.9l.915,1.585a1.835,1.835,0,0,1-.67,2.5l-.464.268a7.024,7.024,0,0,1,.075,1.018,7.113,7.113,0,0,1-.075,1.021l.464.267a1.835,1.835,0,0,1,.67,2.5l-.915,1.585a1.889,1.889,0,0,1-1.621.9,1.773,1.773,0,0,1-.883-.23l-.485-.28a7.451,7.451,0,0,1-1.738,1.018V16.5A1.835,1.835,0,0,1,9.554,18.333ZM4.256,12.9a.907.907,0,0,1,.631.252,5.573,5.573,0,0,0,2.185,1.282.909.909,0,0,1,.649.876V16.5H9.556l0-1.192a.909.909,0,0,1,.649-.876,5.561,5.561,0,0,0,2.185-1.282.906.906,0,0,1,.631-.253.919.919,0,0,1,.458.123l1.05.606.914-1.585-1.03-.595a.921.921,0,0,1-.431-1.015,5.187,5.187,0,0,0,0-2.526.921.921,0,0,1,.43-1.016l1.03-.595-.916-1.585-1.049.606a.919.919,0,0,1-.458.122.91.91,0,0,1-.631-.252A5.573,5.573,0,0,0,10.2,3.9a.912.912,0,0,1-.649-.877V1.833H7.721V3.025a.912.912,0,0,1-.649.877A5.561,5.561,0,0,0,4.887,5.184a.909.909,0,0,1-.63.252A.921.921,0,0,1,3.8,5.314L2.749,4.707,1.833,6.292l1.03.6A.92.92,0,0,1,3.294,7.9a5.187,5.187,0,0,0,0,2.526.922.922,0,0,1-.432,1.015l-1.03.6.917,1.585L3.8,13.02A.916.916,0,0,1,4.256,12.9Z" transform="translate(2.362 1.833)" fill="#555b6d"/>
</svg>
